<!DOCTYPE svg PUBLIC "-//W3C//DTD SVG 1.1//EN" "http://www.w3.org/Graphics/SVG/1.1/DTD/svg11.dtd">
<!-- Uploaded to: SVG Repo, www.svgrepo.com, Transformed by: SVG Repo Mixer Tools -->
<svg fill="#11120D" height="800px" width="800px" version="1.1" id="Layer_1" xmlns="http://www.w3.org/2000/svg" xmlns:xlink="http://www.w3.org/1999/xlink" viewBox="0 0 512 512" xml:space="preserve">
<g id="SVGRepo_bgCarrier" stroke-width="0"/>
<g id="SVGRepo_tracerCarrier" stroke-linecap="round" stroke-linejoin="round"/>
<g id="SVGRepo_iconCarrier"> <g> <g> <g> <path d="M448,10.667h-42.667h-256c-35.355,0-64,28.645-64,64v256h-64C9.551,330.667,0,340.218,0,352v85.333 c0,35.355,28.645,64,64,64h277.333c1.253,0,2.474-0.13,3.668-0.337c2.305,0.214,4.637,0.337,6.999,0.337 c41.243,0,74.667-33.423,74.667-74.667V181.333h64c11.782,0,21.333-9.551,21.333-21.333V74.667 C512,39.311,483.355,10.667,448,10.667z M42.667,437.333v-64h64h170.667v53.333c0,1.183,0.034,2.359,0.089,3.531 c0.007,0.157,0.012,0.314,0.02,0.47c0.057,1.079,0.142,2.152,0.245,3.22c0.024,0.251,0.048,0.502,0.074,0.752 c0.107,0.999,0.233,1.993,0.379,2.981c0.047,0.318,0.097,0.633,0.148,0.95c0.15,0.934,0.313,1.864,0.498,2.787 c0.072,0.363,0.154,0.723,0.231,1.084c0.151,0.701,0.312,1.398,0.483,2.092c0.14,0.569,0.287,1.135,0.44,1.699 c0.156,0.574,0.318,1.146,0.487,1.716c0.191,0.643,0.391,1.282,0.599,1.918c0.177,0.542,0.358,1.082,0.548,1.619 c0.181,0.514,0.365,1.026,0.557,1.534c0.254,0.672,0.517,1.339,0.789,2.002c0.219,0.532,0.445,1.06,0.676,1.586 c0.163,0.372,0.333,0.742,0.502,1.111c0.145,0.316,0.281,0.637,0.43,0.95H64C52.209,458.667,42.667,449.125,42.667,437.333z M384,426.667c0,17.679-14.321,32-32,32c-2.761,0-5.44-0.349-7.996-1.006c-0.006-0.001-0.011-0.003-0.017-0.005 c-0.486-0.125-0.967-0.262-1.443-0.41c-0.066-0.02-0.131-0.042-0.196-0.063c-0.419-0.132-0.834-0.272-1.246-0.421 c-0.083-0.03-0.164-0.061-0.247-0.091c-0.397-0.148-0.791-0.303-1.181-0.466c-0.081-0.034-0.161-0.067-0.241-0.101 c-0.396-0.169-0.787-0.346-1.174-0.531c-0.067-0.032-0.135-0.063-0.202-0.095c-0.418-0.203-0.832-0.415-1.24-0.635 c-0.031-0.017-0.062-0.032-0.093-0.049c-0.893-0.486-1.761-1.013-2.601-1.58c-0.045-0.03-0.089-0.063-0.133-0.094 c-0.349-0.238-0.693-0.482-1.032-0.734c-0.143-0.106-0.282-0.216-0.423-0.324c-0.233-0.179-0.464-0.359-0.692-0.543 c-0.18-0.147-0.358-0.296-0.535-0.447c-0.177-0.15-0.353-0.302-0.527-0.457c-0.202-0.18-0.403-0.362-0.601-0.547 c-0.134-0.125-0.266-0.252-0.397-0.379c-0.224-0.217-0.447-0.435-0.665-0.658c-0.081-0.083-0.16-0.168-0.241-0.252 c-3.917-4.103-6.742-9.232-8.054-14.904c-0.028-0.121-0.057-0.241-0.083-0.362c-0.069-0.314-0.13-0.631-0.19-0.948 c-0.035-0.188-0.069-0.375-0.101-0.564c-0.047-0.279-0.091-0.559-0.13-0.84c-0.034-0.24-0.063-0.48-0.092-0.721 c-0.029-0.245-0.058-0.491-0.082-0.738c-0.029-0.304-0.05-0.61-0.07-0.916c-0.013-0.195-0.029-0.389-0.039-0.585 c-0.024-0.509-0.039-1.021-0.039-1.536V352c0-11.782-9.551-21.333-21.333-21.333H128v-256c0-11.791,9.542-21.333,21.333-21.333 H384V160V426.667z M469.333,138.667h-42.667V53.333H448c11.791,0,21.333,9.542,21.333,21.333V138.667z"/> <path d="M320,96H192c-11.782,0-21.333,9.551-21.333,21.333c0,11.782,9.551,21.333,21.333,21.333h128 c11.782,0,21.333-9.551,21.333-21.333C341.333,105.551,331.782,96,320,96z"/> <path d="M320,181.333H192c-11.782,0-21.333,9.551-21.333,21.333c0,11.782,9.551,21.333,21.333,21.333h128 c11.782,0,21.333-9.551,21.333-21.333C341.333,190.885,331.782,181.333,320,181.333z"/> <path d="M320,266.667H192c-11.782,0-21.333,9.551-21.333,21.333c0,11.782,9.551,21.333,21.333,21.333h128 c11.782,0,21.333-9.551,21.333-21.333C341.333,276.218,331.782,266.667,320,266.667z"/> </g> </g> </g> </g>
</svg>